PathFileType	4	(X/Y/Z)	D:\TRACE\v60_Jaco2_6-2-23\JustBodyDRS_Motion2_3-v60.trc
DataRate	CameraRate	NumFrames	NumMarkers	Units	OrigDataRate	OrigDataStartFrame	OrigNumFrames
100.00	100.00	      17	9	mm	100.00	855	      6834
Frame#	Time	front left toe			Front right toe			aft left toe			aft right toe			Arm			FL body			FR body			AL Body			AR Body			
		X1	Y1	Z1	X2	Y2	Z2	X3	Y3	Z3	X4	Y4	Z4	X5	Y5	Z5	X6	Y6	Z6	X7	Y7	Z7	X8	Y8	Z8	X9	Y9	Z9	

855	8.540	-177.62099	118.84344	-215.39359	163.68230	34.49173	-191.43465	-205.96939	-20.96268	433.14539	209.76982	49.79705	404.17892	-93.00364	1238.47705	-284.72128	-75.38374	608.18427	-336.73584	84.50165	605.94879	-339.21176	-61.48330	522.34259	605.56671	94.18356	514.06232	602.57031	
856	8.550	-177.19107	107.62222	-214.23701	162.64409	34.08818	-191.70061	-207.05954	-20.56327	432.88513	210.89137	39.36877	404.86829	-91.17533	1238.33020	-285.10706	-74.86149	608.44183	-337.48337	85.36503	605.92877	-340.11478	-61.03142	522.71027	604.82288	94.79479	513.96033	601.72510	
857	8.560	-176.37566	96.49892	-213.38878	161.99626	33.92473	-191.72702	-207.63261	-20.28119	432.85318	211.45383	28.96423	405.06909	-90.29854	1238.51221	-285.89020	-74.29616	608.52502	-338.30820	86.10028	605.68652	-340.95984	-60.23003	522.63586	603.90656	95.54775	513.69287	600.97028	
858	8.570	-175.37219	85.42329	-212.81133	161.11928	33.41228	-192.06534	-208.18121	-20.08643	432.95627	212.95593	18.95053	404.72232	-88.59215	1238.83325	-286.76819	-73.86615	608.71729	-339.10468	86.50999	605.65039	-342.00214	-58.99017	522.29327	603.50354	96.71590	513.36902	600.22113	
859	8.580	-173.97255	74.81341	-212.71597	160.55811	33.01054	-192.32520	-209.22273	-19.24218	432.73523	214.75395	9.31633	403.67459	-86.69522	1238.95703	-287.65088	-72.34170	608.27618	-339.41110	87.01282	605.41266	-342.47852	-57.94167	522.43250	602.30145	97.68375	513.06116	599.22308	
860	8.590	-173.18126	64.61248	-212.75014	159.93695	32.66766	-192.64023	-209.96973	-18.79464	432.42331	217.00917	0.47557	402.05164	-84.80460	1239.00366	-288.51276	-72.54705	608.59448	-340.49271	87.09867	605.28827	-343.46393	-56.43267	522.66815	601.93958	99.17706	512.84583	598.42535	
861	8.600	-172.86615	54.93074	-212.58807	158.92676	32.15186	-193.05157	-210.82120	-18.18886	432.34189	218.88321	-7.82165	400.13397	-83.80821	1238.86438	-289.27509	-71.91246	608.43805	-341.35483	87.66809	605.02771	-344.16299	-55.23508	522.36505	600.96228	100.31959	512.47272	597.60938	
862	8.610	-172.69307	46.78958	-212.43796	158.42290	31.88982	-193.12923	-211.96751	-17.38369	432.36249	218.89784	-10.60426	397.62402	-82.23013	1238.53833	-289.75974	-71.65859	608.50690	-341.86554	88.75198	604.84839	-345.31534	-53.61449	522.14972	600.29004	101.61976	512.00256	596.64612	
863	8.620	-172.59573	41.06436	-213.22125	157.27074	31.23787	-193.48956	-212.60689	-16.70252	432.02411	219.11592	-11.75508	398.30536	-81.06834	1238.33521	-290.26697	-70.84216	608.20581	-342.61801	88.77326	604.19421	-346.03448	-52.31379	521.91504	599.69696	103.18487	512.43207	595.72864	
864	8.630	-174.05989	41.35251	-215.69832	156.37674	30.86503	-193.52869	-213.06358	-15.91625	431.89505	218.65970	-10.56407	397.42993	-80.15969	1238.49121	-291.15134	-70.35950	607.31219	-343.48926	90.03102	603.59100	-347.01132	-51.02528	523.75909	598.74103	104.34789	513.83673	595.06458	
865	8.640	-175.16005	38.38415	-214.88358	155.46579	30.71203	-193.65517	-213.17706	-14.97990	432.17236	217.16319	-10.93816	398.14883	-79.24917	1238.55737	-292.34631	-69.13670	607.33148	-344.07825	90.69411	603.72644	-348.03568	-49.73154	524.92621	598.47681	105.90089	514.57666	594.30890	
866	8.650	-176.53098	39.08339	-215.98059	154.63460	31.47840	-194.64110	-213.86646	-13.40679	431.78992	216.20775	-10.76785	398.86664	-79.18464	1238.76599	-294.93207	-68.65674	609.17267	-344.40616	91.62490	604.46771	-348.30936	-48.05832	525.08014	598.09045	107.23669	514.80109	593.84943	
867	8.660	-177.06129	38.54691	-214.31464	152.21802	35.15182	-194.58827	-213.42572	-9.85709	429.79352	215.31932	-10.99324	398.02374	-78.05490	1239.07385	-296.68713	-67.81891	610.82190	-345.03650	92.36259	606.19476	-348.91922	-46.90407	525.08887	597.04352	108.59541	514.39368	592.92126	
868	8.670	-178.00171	39.02090	-215.89986	150.08896	40.26573	-192.66200	-209.80090	-6.88337	431.13461	214.23222	-11.01647	397.69870	-75.86534	1239.93164	-296.65741	-67.40618	611.93091	-345.93762	92.80309	607.30603	-350.01184	-45.76389	524.80786	596.08600	109.80014	514.03906	591.66461	
869	8.680	-178.96257	38.26666	-216.11432	149.54738	49.84163	-192.70988	-203.90897	2.32560	429.77475	213.45020	-10.68189	397.35864	-72.90493	1241.69556	-295.59882	-66.80988	612.41962	-347.05539	92.79843	607.51740	-351.09088	-44.86827	524.94061	594.76471	110.55474	514.17725	590.30231	
870	8.690	-180.20079	37.35140	-215.90074	151.83842	60.54603	-194.07233	-199.07953	11.40043	427.98236	212.67320	-10.16922	397.00592	-70.76566	1243.74438	-294.65341	-66.45870	612.29333	-347.89209	93.33270	607.54437	-352.17911	-43.42379	525.03741	594.20447	111.84689	514.47205	589.11639	
871	8.700	-181.53401	37.12439	-216.47101	155.40131	73.23863	-197.27812	-194.84528	23.62164	425.68378	211.45580	-9.87422	397.05719	-69.07016	1245.53418	-293.91476	-66.39104	612.65631	-349.06775	93.32895	607.59863	-353.37363	-42.12825	524.95929	592.71826	113.40483	514.35406	588.08673	
